<?xml version="1.0" encoding="UTF-8" standalone="no"?>
<svg
   xmlns:dc="http://purl.org/dc/elements/1.1/"
   xmlns:cc="http://creativecommons.org/ns#"
   xmlns:rdf="http://www.w3.org/1999/02/22-rdf-syntax-ns#"
   xmlns:svg="http://www.w3.org/2000/svg"
   xmlns="http://www.w3.org/2000/svg"
   width="200"
   height="200"
   viewBox="0 0 200 200"
   id="svg2"
   version="1.1">
  <g
     transform="matrix(2.0203679,0,0,2.0204082,-1.0203679,-1.02041)"
     id="layer1">
    <path
       style="fill:#000000;fill-opacity:1;fill-rule:nonzero;stroke:none"
       d="M 49.996094,1 C 38.035679,1 27.073768,5.2926752 18.5625,12.416016 c 0.737093,0.33385 1.399061,0.815679 1.933594,1.412109 8.038629,-6.56818 18.308563,-10.4980469 29.5,-10.4980469 11.257081,0 21.593161,3.9842119 29.654297,10.6386719 0.52328,-0.61331 1.166661,-1.110593 1.890625,-1.470703 C 73.012868,5.3184368 62.016526,1 49.996094,1 Z m 0,4.5839844 c -8.567535,0 -16.55948,2.4294731 -23.333985,6.6269536 l 8.212891,0 0,3.84375 -3.839844,0 0,33.263671 -3.861328,0 0,-33.263671 -3.84375,0 0,-1.570313 c -0.560791,0.42762 -1.121872,0.860261 -1.660156,1.306641 0.206311,0.5983 0.316406,1.22043 0.316406,1.875 l 0,4.21289 -3.851562,0 0,-2.814453 c -1.374781,1.42541 -2.658012,2.931327 -3.833985,4.529297 l 0,5.25 3.833985,0 c 2.141884,0 3.851562,1.717109 3.851562,3.849609 l 0,11.167969 c 0,3.17343 -2.593984,5.769531 -5.763672,5.769531 -3.173439,0 -5.773437,-2.596101 -5.773437,-5.769531 l 0,-4.203125 3.851562,0 0,5.8125 3.833985,0 0,-12.777344 -3.833985,0 c -1.864302,0 -3.401922,-1.31073 -3.769531,-3.0625 -3.1546831,6.0993 -4.9316406,13.012805 -4.9316406,20.359375 0,10.6025 3.7258949,20.347335 9.9433596,27.990235 l 0,-22.587891 -3.851563,0 0,-3.841797 11.535156,0 0,3.841797 -3.845703,0 0,26.75 c 1.924319,1.8287 4.021454,3.486319 6.240235,4.949219 l 0,-35.541016 3.84375,0 0,16.626953 3.84375,0 0,-16.626953 3.853515,0 0,37.101563 -3.853515,0 0,-16.634766 -3.84375,0 0,16.634766 -1.289063,0 c 6.440656,3.6479 13.88484,5.734375 21.820313,5.734375 8.276824,0 16.040222,-2.280569 22.679687,-6.230469 L 71.4375,51.550781 l 3.908203,0 c 0.04689,6.6526 0.195313,13.351513 0.195313,20.007813 0,2.3913 -0.103516,4.774922 -0.103516,7.169922 l 0.103516,0 c 0.678951,-6.133 1.671927,-10.242266 2.287109,-14.447266 l 3.224609,0 c 0.615182,4.205 1.600734,8.314266 2.289063,14.447266 l 0.08984,0 c 0,-2.395 -0.08984,-4.778622 -0.08984,-7.169922 0,-6.6563 0.152717,-13.355213 0.208984,-20.007813 l 3.888672,0 -0.789062,23.470703 c 4.874568,-7.1309 7.736328,-15.75105 7.736328,-25.03125 0,-11.8779 -4.661659,-22.655623 -12.253907,-30.621093 l 0,9.474609 3.851563,0 c 2.132506,0 3.847656,1.717109 3.847656,3.849609 l 0,11.167969 c 0,3.17343 -2.599843,5.769531 -5.769531,5.769531 -3.167812,0 -5.771484,-2.596101 -5.771484,-5.769531 l 0,-4.203125 3.841796,0 0,5.8125 3.851563,0 0,-12.777344 -3.851563,0 c -2.126879,0 -3.841796,-1.717109 -3.841796,-3.849609 l 0,-11.177734 c 0,-0.58142 0.08901,-1.145002 0.257812,-1.675782 -0.686454,-0.57205 -1.399238,-1.133438 -2.126953,-1.667968 l 0,1.732422 -7.679687,0 0,12.789062 5.765624,0 0,3.849609 -5.765624,0 0,12.777344 7.679687,0 0,3.847656 -7.679687,0 c -2.138133,0 -3.853516,-1.713276 -3.853516,-3.847656 l 0,-29.416015 c 0,-2.12875 1.715383,-3.84375 3.853516,-3.84375 l 4.578124,0 C 66.545807,8.0134575 58.558002,5.5839844 49.996094,5.5839844 Z m -8.007813,6.3183596 c 3.171563,0 5.767578,2.592112 5.767578,5.763672 l 0,26.195312 c 0,3.17343 -2.596015,5.769531 -5.767578,5.769531 -3.169688,0 -5.767578,-2.596101 -5.767578,-5.769531 l 0,-26.195312 c 0,-3.17156 2.59789,-5.763672 5.767578,-5.763672 z m 8.572266,0.308594 3.634765,0 c 1.352277,7.802289 3.324584,15.490309 4.466797,23.755859 l 0.103516,0 c -0.20256,-3.12466 -0.519531,-9.725134 -0.519531,-12.996094 l 0,-10.759765 3.847656,0 0,37.107421 -3.640625,0 C 57.110228,41.523579 55.13065,33.835633 53.992188,25.564453 l -0.105469,0 c 0.20256,3.12279 0.513672,9.716066 0.513672,13.003906 l 0,6.736329 0.0098,0 0,4.013671 -0.0098,0 -0.705079,0 c 0.03188,0.2195 0.05078,0.443128 0.05078,0.673829 l -0.0625,0 0,0.0098 0.08203,0 c 0,1.3935 -0.761153,2.59576 -1.880859,3.255859 0.408871,0.609601 0.648437,1.345166 0.648437,2.134766 l 0,11.75 c 0,1.7573 -0.771517,2.439485 -1.716797,2.958984 0.94528,0.362 1.716797,1.139482 1.716797,3.425782 l 0,12.367187 c 0,1.0428 0.419692,1.823813 0.933594,2.757813 l -3.949219,0 c -0.416373,-0.7859 -0.833984,-1.820013 -0.833984,-2.757813 l 0,-13.876953 -3.84961,0 0,16.634766 -3.835937,0 0,-37.101563 5.558594,0 C 46.350327,51.072616 46.2207,50.555288 46.2207,50.001988 l 0.01563,0 0,-0.0098 -0.02344,0 c 0,-2.083701 1.691571,-3.769532 3.773437,-3.769532 0.193183,0 0.388539,0.02469 0.574219,0.05469 l 0,-0.972656 0,-33.09375 z m 31.572265,3.84375 0,0.109374 c 1.365404,1.296012 2.651208,2.675284 3.851563,4.126954 l 0,-3.552735 c -0.215689,-0.22507 -0.424781,-0.443524 -0.636719,-0.683593 l -3.214844,0 z m -67.474609,0.002 c -0.116285,0.12754 -0.246919,0.255428 -0.361328,0.386718 l 0,3.492188 c 1.142213,-1.35978 2.37196,-2.656046 3.667969,-3.878906 l -3.306641,0 z m 25.414063,0.02539 0,29.410157 3.849609,0 0,-29.410157 -3.849609,0 z M 10.449219,21.066406 C 4.509336,29.174416 1,39.176253 1,50.001953 1,63.635353 6.5552312,75.96305 15.541016,84.84375 l 0,-3.390625 C 7.9562708,73.153825 3.3378906,62.110034 3.3378906,49.990234 c 0,-9.10953 2.6024939,-17.60539 7.1113284,-24.78125 l 0,-4.142578 z m 79.382812,0.376953 0,0.433594 -2.59375,0 c 5.909874,7.81917 9.416016,17.559508 9.416016,28.111328 0,10.9683 -3.787888,21.060044 -10.134766,29.027344 l -0.128906,3.802734 c 7.841695,-8.6857 12.611328,-20.191953 12.611328,-32.814453 0,-10.6606 -3.406341,-20.518187 -9.169922,-28.560547 z M 49.966797,48.197266 c -0.97904,0 -1.771485,0.792331 -1.771485,1.769531 10e-7,0.9772 0.792445,1.759765 1.771485,1.759765 0.971537,0 1.761719,-0.782565 1.761719,-1.759765 0,-0.9772 -0.790182,-1.769531 -1.761719,-1.769531 z m 12.177734,3.042968 c 3.171564,0 5.763672,2.595613 5.763672,5.757813 l 0,26.199219 c 0,3.1659 -2.592108,5.765625 -5.763672,5.765625 -3.17719,0 -5.771484,-2.599725 -5.771484,-5.765625 l 0,-26.199219 c 0,-3.1622 2.594294,-5.757813 5.771484,-5.757813 z m -1.917969,4.177735 0,29.416015 3.855469,0 0,-29.416015 -3.855469,0 z m -15.371093,0.002 0,12.779297 3.845703,0 0,-12.779297 -3.845703,0 z M 79.388672,69.627 c -0.452009,6.3375 -1.475975,11.120969 -2.40625,15.605469 1.453555,-1.1216 2.859142,-2.344572 4.175781,-3.638672 C 80.469875,78.118397 79.828067,74.2915 79.496094,69.627 l -0.107422,0 z m 2.3125,14.591797 c -1.693626,1.568 -3.498733,3.008947 -5.404297,4.310547 -0.01313,0.039 -0.02344,0.08525 -0.02344,0.123047 l -0.15625,0 c -7.457207,5.0452 -16.450655,7.988281 -26.119141,7.988281 -11.718468,0 -22.419214,-4.304647 -30.619141,-11.435547 l 0,3.058594 C 27.768264,94.979972 38.416495,99 49.998047,99 62.350452,99 73.628228,94.436131 82.253906,86.894531 82.068226,86.009331 81.881225,85.12275 81.701172,84.21875 Z"
       id="path8220" />
  </g>
</svg>
