<?xml version="1.0" encoding="UTF-8" standalone="no"?>
<svg
   xmlns:dc="http://purl.org/dc/elements/1.1/"
   xmlns:cc="http://creativecommons.org/ns#"
   xmlns:rdf="http://www.w3.org/1999/02/22-rdf-syntax-ns#"
   xmlns:svg="http://www.w3.org/2000/svg"
   xmlns="http://www.w3.org/2000/svg"
   xmlns:sodipodi="http://sodipodi.sourceforge.net/DTD/sodipodi-0.dtd"
   xmlns:inkscape="http://www.inkscape.org/namespaces/inkscape"
   width="37.367184pt"
   height="39.52298pt"
   viewBox="0 0 37.367184 39.52298"
   version="1.2"
   id="svg11010"
   sodipodi:docname="Carhartt logo from PDF.svg"
   inkscape:version="0.92.4 5da689c313, 2019-01-14">
  <metadata
     id="metadata11014">
    <rdf:RDF>
      <cc:Work
         rdf:about="">
        <dc:format>image/svg+xml</dc:format>
        <dc:type
           rdf:resource="http://purl.org/dc/dcmitype/StillImage" />
        <dc:title></dc:title>
        <dc:source>https://boilermakers.org/sites/default/files/reporter/Boilermaker-Reporter-V58N2.pdf</dc:source>
        <cc:license
           rdf:resource="" />
      </cc:Work>
    </rdf:RDF>
  </metadata>
  <sodipodi:namedview
     pagecolor="#ffffff"
     bordercolor="#666666"
     borderopacity="1"
     objecttolerance="10"
     gridtolerance="10"
     guidetolerance="10"
     inkscape:pageopacity="0"
     inkscape:pageshadow="2"
     inkscape:window-width="1680"
     inkscape:window-height="1020"
     id="namedview11012"
     showgrid="false"
     fit-margin-top="0"
     fit-margin-left="0"
     fit-margin-right="0"
     fit-margin-bottom="0"
     inkscape:pagecheckerboard="true"
     inkscape:zoom="11.313709"
     inkscape:cx="39.093986"
     inkscape:cy="30.840048"
     inkscape:window-x="138"
     inkscape:window-y="0"
     inkscape:window-maximized="1"
     inkscape:current-layer="surface1863" />
  <defs
     id="defs3523">
    <clipPath
       id="clip127">
      <path
         d="m 66,680 h 27.363281 v 33 H 66 Z m 0,0"
         id="path1658"
         inkscape:connector-curvature="0" />
    </clipPath>
    <clipPath
       id="clip128">
      <path
         d="M 55.996094,715 H 61 v 4.65625 h -5.003906 z m 0,0"
         id="path1661"
         inkscape:connector-curvature="0" />
    </clipPath>
    <clipPath
       id="clip129">
      <path
         d="m 71,714 h 2 v 5.65625 h -2 z m 0,0"
         id="path1664"
         inkscape:connector-curvature="0" />
    </clipPath>
    <clipPath
       id="clip130">
      <path
         d="m 72,715 h 4 v 4.65625 h -4 z m 0,0"
         id="path1667"
         inkscape:connector-curvature="0" />
    </clipPath>
    <clipPath
       id="clip131">
      <path
         d="m 86,714 h 4 v 5.65625 h -4 z m 0,0"
         id="path1670"
         inkscape:connector-curvature="0" />
    </clipPath>
    <clipPath
       id="clip132">
      <path
         d="m 90,714 h 3.363281 v 5.65625 H 90 Z m 0,0"
         id="path1673"
         inkscape:connector-curvature="0" />
    </clipPath>
    <clipPath
       id="clip133">
      <path
         d="m 60,715 h 7 v 4.65625 h -7 z m 0,0"
         id="path1676"
         inkscape:connector-curvature="0" />
    </clipPath>
    <clipPath
       id="clip134">
      <path
         d="m 76,715 h 6 v 4.65625 h -6 z m 0,0"
         id="path1679"
         inkscape:connector-curvature="0" />
    </clipPath>
    <clipPath
       id="clip135">
      <path
         d="m 66,715 h 2 v 4.65625 h -2 z m 0,0"
         id="path1682"
         inkscape:connector-curvature="0" />
    </clipPath>
    <clipPath
       id="clip136">
      <path
         d="m 81,715 h 2 v 4.65625 h -2 z m 0,0"
         id="path1685"
         inkscape:connector-curvature="0" />
    </clipPath>
    <clipPath
       id="clip137">
      <path
         d="m 92,718 h 1.363281 v 1.65625 H 92 Z m 0,0"
         id="path1688"
         inkscape:connector-curvature="0" />
    </clipPath>
  </defs>
  <g
     id="surface1863"
     transform="translate(-55.996094,-680.13327)">
    <g
       clip-path="url(#clip127)"
       id="g10751"
       style="clip-rule:nonzero">
      <path
         style="fill:#f5a600;fill-opacity:1;fill-rule:nonzero;stroke:none"
         d="m 86.308594,694.60156 c -2.941406,-0.89062 -4.5625,-4.1289 -3.621094,-7.23437 0.324219,-1.07422 0.914062,-1.99219 1.671875,-2.69922 0,0 1.960937,-1.92578 5.054687,-0.85547 -0.03516,0 -0.07031,-0.004 -0.101562,-0.004 -1.871094,0 -3.390625,1.67578 -3.390625,3.73828 0,2.06641 1.519531,3.73829 3.390625,3.73829 1.476562,0 2.734375,-1.04297 3.195312,-2.5 0,0 0.109376,-0.3125 0.171876,-0.82422 0.01172,-0.0859 0.01953,-0.19141 0.01953,-0.19141 0.117187,-1.30078 -0.109375,-3.60937 -2.65625,-5.44531 -3.453125,-2.4336 -8.308594,-2.1836 -8.308594,-2.1836 -8.628906,0 -15.625,7.14454 -15.625,15.96485 0,8.8125 6.996094,15.96094 15.625,15.96094 h 11.59375 v -21.47657 c -0.9375,3.10547 -4.082031,4.90235 -7.019531,4.01172"
         id="path10749"
         inkscape:connector-curvature="0" />
    </g>
    <g
       clip-path="url(#clip128)"
       id="g10755"
       style="clip-rule:nonzero">
      <path
         style="fill:#000000;fill-opacity:1;fill-rule:nonzero;stroke:none"
         d="m 57.878906,716.53125 h 2.59375 v -0.85938 c 0,0 -2.128906,0 -2.410156,0 -1.273438,0.004 -2.066406,0.81641 -2.066406,1.95704 0.0039,1.14062 0.851562,1.94921 2.121094,1.94531 h 2.355468 v -0.85547 h -2.625 c -0.378906,0 -0.875,-0.47656 -0.875,-1.08984 0,-0.61719 0.496094,-1.09766 0.90625,-1.09766"
         id="path10753"
         inkscape:connector-curvature="0" />
    </g>
    <g
       clip-path="url(#clip129)"
       id="g10759"
       style="clip-rule:nonzero">
      <path
         style="fill:#000000;fill-opacity:1;fill-rule:nonzero;stroke:none"
         d="m 72.308594,719.57422 h -0.960938 v -4.875 h 0.960938 z m 0,0"
         id="path10757"
         inkscape:connector-curvature="0" />
    </g>
    <g
       clip-path="url(#clip130)"
       id="g10763"
       style="clip-rule:nonzero">
      <path
         style="fill:#000000;fill-opacity:1;fill-rule:nonzero;stroke:none"
         d="m 72.757812,716.59375 c 0.15625,-0.0469 0.613282,-0.30078 1.304688,-0.16797 0.6875,0.13672 1.152344,0.92188 0.257812,2.92188 -0.148437,0.27343 0.261719,0.3125 0.261719,0.3125 l 0.660157,-0.082 c 0,0 1.101562,-2.32031 0.238281,-3.30468 -0.867188,-0.98438 -2.644531,-0.58985 -2.761719,-0.51563 -0.242188,0.15625 -0.113281,0.88281 0.03906,0.83594"
         id="path10761"
         inkscape:connector-curvature="0" />
    </g>
    <g
       clip-path="url(#clip131)"
       id="g10767"
       style="clip-rule:nonzero">
      <path
         style="fill:#000000;fill-opacity:1;fill-rule:nonzero;stroke:none"
         d="m 89.585938,715.67578 h -1.347657 v -0.73437 h -0.976562 v 0.73437 h -0.839844 v 0.89453 h 0.839844 v 3.00391 h 0.976562 v -3.00391 h 1.347657 z m 0,0"
         id="path10765"
         inkscape:connector-curvature="0" />
    </g>
    <g
       clip-path="url(#clip132)"
       id="g10771"
       style="clip-rule:nonzero">
      <path
         style="fill:#000000;fill-opacity:1;fill-rule:nonzero;stroke:none"
         d="m 93.363281,715.67578 h -1.347656 v -0.73437 h -0.972656 v 0.73437 h -0.84375 v 0.89453 h 0.84375 v 3.00391 h 0.972656 v -3.00391 h 1.347656 z m 0,0"
         id="path10769"
         inkscape:connector-curvature="0" />
    </g>
    <g
       clip-path="url(#clip133)"
       id="g10775"
       style="clip-rule:nonzero">
      <path
         style="fill:#000000;fill-opacity:1;fill-rule:nonzero;stroke:none"
         d="m 66.101562,716.92969 c 0,-0.57032 -0.492187,-1.25782 -1.445312,-1.25782 h -3.136719 v 0.86329 h 3.128907 c 0.304687,0 0.480468,0.16406 0.480468,0.38281 v 1.79687 h -2.777344 c -0.292968,0 -0.480468,-0.17968 -0.480468,-0.39453 0,-0.22265 0.175781,-0.38672 0.480468,-0.38672 h 2.433594 v -0.82422 c 0,0 -1.78125,-0.004 -2.4375,-0.004 -0.957031,0 -1.453125,0.6875 -1.453125,1.26172 0.0039,0.72265 0.667969,1.20703 1.46875,1.20703 h 3.738281 z m 0,0"
         id="path10773"
         inkscape:connector-curvature="0" />
    </g>
    <g
       clip-path="url(#clip134)"
       id="g10779"
       style="clip-rule:nonzero">
      <path
         style="fill:#000000;fill-opacity:1;fill-rule:nonzero;stroke:none"
         d="m 81.359375,716.92969 c 0,-0.57032 -0.492187,-1.25782 -1.449219,-1.25782 h -3.132812 v 0.86329 h 3.128906 c 0.304688,0 0.480469,0.16406 0.480469,0.38281 v 1.79687 h -2.777344 c -0.292969,0 -0.480469,-0.17968 -0.480469,-0.39453 0,-0.22265 0.175782,-0.38672 0.480469,-0.38672 h 2.433594 v -0.82422 c 0,0 -1.78125,-0.004 -2.4375,-0.004 -0.957031,0 -1.453125,0.6875 -1.453125,1.26172 0.0039,0.72265 0.667968,1.20703 1.46875,1.20703 h 3.738281 z m 0,0"
         id="path10777"
         inkscape:connector-curvature="0" />
    </g>
    <g
       clip-path="url(#clip135)"
       id="g10783"
       style="clip-rule:nonzero">
      <path
         style="fill:#000000;fill-opacity:1;fill-rule:nonzero;stroke:none"
         d="m 67.679688,719.57422 h -0.964844 v -3.89844 h 0.964844 z m 0,0"
         id="path10781"
         inkscape:connector-curvature="0" />
    </g>
    <path
       style="fill:#000000;fill-opacity:1;fill-rule:nonzero;stroke:none"
       d="m 68.125,716.60547 c 0.15625,-0.0469 0.390625,-0.30078 1.078125,-0.16797 0.441406,0.0859 0.710937,0.39844 0.679687,1.16016 -0.0078,0.21093 0.921876,0.13671 0.921876,-0.0234 0.0039,-0.6211 0.08203,-1.07031 -0.453126,-1.5625 -0.660156,-0.60547 -2.152343,-0.31641 -2.269531,-0.24219 -0.242187,0.15625 -0.113281,0.88281 0.04297,0.83594"
       id="path10785"
       inkscape:connector-curvature="0" />
    <g
       clip-path="url(#clip136)"
       id="g10789"
       style="clip-rule:nonzero">
      <path
         style="fill:#000000;fill-opacity:1;fill-rule:nonzero;stroke:none"
         d="m 82.9375,719.57422 h -0.964844 v -3.89844 H 82.9375 Z m 0,0"
         id="path10787"
         inkscape:connector-curvature="0" />
    </g>
    <path
       style="fill:#000000;fill-opacity:1;fill-rule:nonzero;stroke:none"
       d="m 83.382812,716.60547 c 0.152344,-0.0469 0.390626,-0.30078 1.078126,-0.16797 0.441406,0.0859 0.707031,0.39844 0.679687,1.16016 -0.0078,0.21093 0.921875,0.13671 0.921875,-0.0234 0.0039,-0.6211 0.08203,-1.07031 -0.453125,-1.5625 -0.660156,-0.60547 -2.152344,-0.31641 -2.265625,-0.24219 -0.246094,0.15625 -0.117188,0.88281 0.03906,0.83594"
       id="path10791"
       inkscape:connector-curvature="0" />
    <g
       clip-path="url(#clip137)"
       id="g10795"
       style="clip-rule:nonzero">
      <path
         style="fill:#000000;fill-opacity:1;fill-rule:evenodd;stroke:none"
         d="m 92.480469,719.16016 c 0,0.23828 0.191406,0.42968 0.429687,0.42968 0.238282,0 0.433594,-0.1914 0.433594,-0.42968 0,-0.23829 -0.195312,-0.4336 -0.433594,-0.4336 -0.238281,0 -0.429687,0.19531 -0.429687,0.4336 m 0.777343,0 c 0,0.19531 -0.15625,0.35156 -0.347656,0.35156 -0.191406,0 -0.34375,-0.15625 -0.34375,-0.35156 0,-0.19532 0.152344,-0.35157 0.34375,-0.35157 0.191406,0 0.347656,0.15625 0.347656,0.35157 m -0.511718,0.25 h 0.08203 v -0.21875 h 0.05859 l 0.144531,0.21875 H 93.125 l -0.144531,-0.21875 c 0.07422,-0.008 0.132812,-0.0469 0.132812,-0.14063 0,-0.0977 -0.05859,-0.14453 -0.175781,-0.14453 h -0.191406 z m 0.08203,-0.42969 h 0.113281 c 0.05469,0 0.08984,0.0195 0.08984,0.0664 0,0.0547 -0.03906,0.0742 -0.113281,0.0742 h -0.08984 z m 0,0"
         id="path10793"
         inkscape:connector-curvature="0" />
    </g>
  </g>
</svg>
